<?xml version="1.0" encoding="UTF-8" standalone="no"?>
<!-- Generator: Adobe Illustrator 26.4.1, SVG Export Plug-In . SVG Version: 6.00 Build 0)  -->

<svg
   version="1.1"
   id="Layer_1"
   x="0px"
   y="0px"
   viewBox="0 0 117.32549 17"
   xml:space="preserve"
   sodipodi:docname="315949ff623122869508aabcd20d62f0.svg"
   width="117.32549"
   height="17"
   xmlns:inkscape="http://www.inkscape.org/namespaces/inkscape"
   xmlns:sodipodi="http://sodipodi.sourceforge.net/DTD/sodipodi-0.dtd"
   xmlns="http://www.w3.org/2000/svg"
   xmlns:svg="http://www.w3.org/2000/svg"><defs
   id="defs29" /><sodipodi:namedview
   id="namedview27"
   pagecolor="#ffffff"
   bordercolor="#666666"
   borderopacity="1.0"
   inkscape:pageshadow="2"
   inkscape:pageopacity="0.0"
   inkscape:pagecheckerboard="0" />
<style
   type="text/css"
   id="style2">
	.st0{enable-background:new    ;}
	.st1{fill:#1F3BB3;}
</style>
<g
   class="st0"
   id="g24"
   transform="translate(-0.3,-0.5)">
	<path
   d="M 0.3,17.1 5.4,0.8 h 4 l 5.1,16.3 H 11.7 L 7.1,2.5 H 7.7 L 3.1,17.1 Z m 2.9,-3.5 v -2.5 h 8.6 v 2.5 z"
   id="path4" />
	<path
   d="M 16.6,17.1 V 0.8 h 6.7 c 0.2,0 0.4,0 0.6,0 0.2,0 0.5,0 0.7,0.1 0.9,0.1 1.7,0.5 2.3,0.9 0.6,0.5 1.1,1.1 1.4,1.8 0.3,0.7 0.4,1.6 0.4,2.5 0,0.9 -0.2,1.7 -0.5,2.4 -0.3,0.7 -0.8,1.3 -1.4,1.8 -0.6,0.5 -1.4,0.8 -2.3,0.9 -0.2,0 -0.4,0.1 -0.7,0.1 -0.3,0 -0.5,0 -0.6,0 h -4 V 17 h -2.6 z m 2.7,-8.2 h 3.9 c 0.2,0 0.3,0 0.5,0 0.2,0 0.4,0 0.5,-0.1 C 24.7,8.7 25,8.5 25.3,8.2 25.6,7.9 25.7,7.6 25.9,7.2 26,6.8 26.1,6.5 26.1,6.1 26.1,5.8 26,5.4 25.9,5 25.8,4.6 25.6,4.3 25.3,4 25,3.7 24.7,3.5 24.2,3.4 24,3.4 23.9,3.3 23.7,3.3 c -0.2,0 -0.4,0 -0.5,0 h -3.9 z"
   id="path6" />
	<path
   d="M 31.3,17.1 V 0.8 H 34 v 16.3 c 0,0 -2.7,0 -2.7,0 z"
   id="path8" />
	<path
   class="st1"
   d="m 43.5,17.5 c -1.2,0 -2.3,-0.2 -3.2,-0.6 -1,-0.4 -1.7,-1 -2.4,-1.8 -0.6,-0.8 -1,-1.7 -1.2,-2.8 l 2.8,-0.4 c 0.2,1 0.7,1.7 1.5,2.2 0.8,0.5 1.6,0.8 2.6,0.8 0.6,0 1.1,-0.1 1.6,-0.3 0.5,-0.2 0.9,-0.4 1.3,-0.8 C 46.8,13.5 47,13 47,12.5 47,12.3 47,12.1 46.9,11.9 46.8,11.7 46.7,11.5 46.6,11.4 46.5,11.2 46.3,11.1 46,11 45.8,10.9 45.5,10.8 45.2,10.7 L 41,9.5 C 40.6,9.4 40.2,9.3 39.8,9.1 39.4,8.9 39,8.7 38.6,8.4 38.2,8.1 37.9,7.7 37.7,7.2 37.5,6.7 37.3,6.1 37.3,5.4 c 0,-1 0.3,-1.9 0.8,-2.6 0.5,-0.7 1.2,-1.2 2.2,-1.6 0.9,-0.4 1.9,-0.5 3,-0.5 1.1,0 2.1,0.2 3,0.6 0.9,0.4 1.6,0.9 2.2,1.6 0.6,0.7 1,1.6 1.2,2.6 L 46.8,6 C 46.7,5.4 46.4,4.9 46.1,4.5 45.8,4.1 45.3,3.8 44.8,3.6 44.3,3.4 43.8,3.3 43.2,3.3 c -0.5,0 -1,0.1 -1.5,0.2 -0.5,0.2 -0.8,0.4 -1.1,0.7 -0.3,0.3 -0.4,0.7 -0.4,1.1 0,0.4 0.1,0.7 0.4,1 0.2,0.3 0.5,0.5 0.9,0.6 0.4,0.1 0.7,0.3 1.1,0.4 l 2.9,0.8 c 0.4,0.1 0.8,0.2 1.3,0.4 0.5,0.2 1,0.4 1.4,0.8 0.5,0.3 0.8,0.8 1.1,1.3 0.3,0.5 0.4,1.2 0.4,2 0,0.8 -0.2,1.6 -0.5,2.2 -0.4,0.6 -0.8,1.2 -1.4,1.6 -0.6,0.4 -1.3,0.7 -2,1 -0.7,0 -1.5,0.1 -2.3,0.1 z"
   id="path10" />
	<path
   class="st1"
   d="m 57.9,17.5 c -1.2,0 -2.3,-0.3 -3.3,-0.8 -0.9,-0.5 -1.7,-1.3 -2.2,-2.2 -0.5,-1 -0.8,-2 -0.8,-3.3 0,-1.3 0.3,-2.5 0.8,-3.5 0.5,-1 1.2,-1.7 2.1,-2.3 0.9,-0.6 2,-0.8 3.2,-0.8 1.3,0 2.3,0.3 3.2,0.9 0.9,0.6 1.5,1.4 2,2.5 0.4,1.1 0.6,2.4 0.5,3.8 h -2.7 v -1 C 60.7,9.5 60.5,8.5 60,7.9 59.5,7.3 58.8,7 57.8,7 c -1.1,0 -1.9,0.3 -2.5,1 -0.5,0.7 -0.8,1.7 -0.8,3 0,1.2 0.3,2.2 0.8,2.9 0.5,0.7 1.3,1 2.4,1 0.7,0 1.3,-0.1 1.7,-0.4 0.5,-0.3 0.9,-0.7 1.1,-1.3 l 2.7,0.8 c -0.5,1.1 -1.2,2 -2.2,2.6 -0.9,0.6 -1.9,0.9 -3.1,0.9 z M 53.7,11.8 V 9.7 h 8.4 v 2.1 c 0,0 -8.4,0 -8.4,0 z"
   id="path12" />
	<path
   class="st1"
   d="M 66,17.1 V 4.9 h 2.4 v 3 L 68.1,7.5 C 68.3,7.1 68.5,6.7 68.7,6.4 69,6.1 69.3,5.8 69.6,5.6 69.9,5.4 70.2,5.2 70.6,5.1 71,5 71.3,4.9 71.7,4.9 c 0.4,0 0.8,0 1.1,0.1 V 7.5 C 72.4,7.4 72,7.4 71.5,7.4 71,7.4 70.6,7.6 70.2,7.8 69.8,8 69.5,8.3 69.3,8.6 69.1,8.9 68.9,9.3 68.8,9.7 68.7,10.1 68.6,10.5 68.6,11 v 6.2 H 66 Z"
   id="path14" />
	<path
   class="st1"
   d="M 78.3,17.1 73.9,4.9 h 2.7 l 3.1,8.9 3.1,-8.9 h 2.7 L 81,17.1 Z"
   id="path16" />
	<path
   class="st1"
   d="M 87.8,3.1 V 0.5 h 2.7 V 3 Z m 0,14 V 4.9 h 2.7 v 12.2 z"
   id="path18" />
	<path
   class="st1"
   d="m 99.2,17.5 c -1.3,0 -2.3,-0.3 -3.2,-0.8 -0.9,-0.6 -1.6,-1.3 -2,-2.3 -0.5,-1 -0.7,-2.1 -0.7,-3.3 0,-1.3 0.3,-2.4 0.7,-3.3 0.5,-1 1.2,-1.7 2.1,-2.3 0.9,-0.6 2,-0.8 3.2,-0.8 1.4,0 2.6,0.3 3.5,1 1,0.7 1.6,1.7 1.9,2.9 L 102,9.3 c -0.2,-0.7 -0.6,-1.2 -1.1,-1.5 -0.5,-0.4 -1,-0.5 -1.7,-0.5 -0.7,0 -1.3,0.2 -1.8,0.5 -0.4,0.2 -0.8,0.6 -1,1.2 -0.2,0.6 -0.3,1.3 -0.3,2 0,1.2 0.3,2.1 0.8,2.8 0.5,0.7 1.3,1.1 2.3,1.1 0.7,0 1.3,-0.2 1.7,-0.5 0.4,-0.3 0.7,-0.8 0.9,-1.4 l 2.8,0.6 c -0.4,1.2 -1,2.2 -2,2.9 -0.9,0.7 -2,1 -3.4,1 z"
   id="path20" />
	<path
   class="st1"
   d="m 112.1,17.5 c -1.2,0 -2.3,-0.3 -3.3,-0.8 -0.9,-0.5 -1.7,-1.3 -2.2,-2.2 -0.5,-1 -0.8,-2 -0.8,-3.3 0,-1.3 0.3,-2.5 0.8,-3.5 0.5,-1 1.2,-1.7 2.1,-2.3 0.9,-0.5 2,-0.8 3.2,-0.8 1.3,0 2.3,0.3 3.2,0.9 0.9,0.6 1.5,1.4 2,2.5 0.4,1.1 0.6,2.4 0.5,3.8 H 115 v -1 C 115,9.5 114.8,8.5 114.3,7.9 113.8,7.3 113.1,7 112.1,7 c -1.1,0 -1.9,0.3 -2.5,1 -0.5,0.7 -0.8,1.7 -0.8,3 0,1.2 0.3,2.2 0.8,2.9 0.5,0.7 1.3,1 2.4,1 0.7,0 1.3,-0.1 1.7,-0.4 0.5,-0.3 0.9,-0.7 1.1,-1.3 l 2.7,0.8 c -0.5,1.1 -1.2,2 -2.2,2.6 -0.9,0.6 -2,0.9 -3.2,0.9 z m -4.2,-5.7 V 9.7 h 8.4 v 2.1 c 0,0 -8.4,0 -8.4,0 z"
   id="path22" />
</g>
</svg>
